<svg xmlns="http://www.w3.org/2000/svg" viewBox="0 0 640 720" role="img" aria-label="Bombero ARFF con traje aluminizado frente a aeronave en pista">
  <defs>
    <linearGradient id="bgaeropu" x1="0" y1="0" x2="1" y2="1">
      <stop offset="0" stop-color="#0C1825"/><stop offset="0.6" stop-color="#070E1A"/><stop offset="1" stop-color="#040A12"/>
    </linearGradient>
    <radialGradient id="glaeropu" cx="0.5" cy="0.45" r="0.65">
      <stop offset="0" stop-color="#F75000" stop-opacity="0.2"/><stop offset="1" stop-color="#F75000" stop-opacity="0"/>
    </radialGradient>
    <pattern id="graeropu" width="40" height="40" patternUnits="userSpaceOnUse">
      <path d="M40 0H0V40" fill="none" stroke="#7AA4C4" stroke-width="0.6" opacity="0.08"/>
    </pattern>
  </defs>
  <rect width="640" height="720" fill="url(#bgaeropu)"/>
  <rect width="640" height="720" fill="url(#graeropu)"/>
  <rect width="640" height="720" fill="url(#glaeropu)"/>
  <g font-family="Rajdhani, Arial, sans-serif" font-weight="700">
    <rect x="40" y="48" width="158" height="34" fill="rgba(247,80,0,0.12)" stroke="rgba(247,80,0,0.4)"/>
    <text x="119" y="71" text-anchor="middle" font-size="16" fill="#FF8F57" letter-spacing="2">NFPA 403</text>
    <rect x="442" y="48" width="158" height="34" fill="rgba(74,117,153,0.12)" stroke="rgba(74,117,153,0.4)"/>
    <text x="521" y="71" text-anchor="middle" font-size="16" fill="#7AA4C4" letter-spacing="2">OACI · AFAC</text>
  </g>

  <g>
    <!-- pista -->
    <rect x="0" y="500" width="640" height="80" fill="#0A1420"/>
    <g fill="#F5A623"><rect x="40" y="536" width="70" height="10"/><rect x="170" y="536" width="70" height="10"/><rect x="300" y="536" width="70" height="10"/><rect x="430" y="536" width="70" height="10"/><rect x="560" y="536" width="70" height="10"/></g>
    <!-- aeronave -->
    <g transform="translate(330 300)">
      <ellipse cx="0" cy="0" rx="240" ry="54" fill="#1A2E44" stroke="#4A7599" stroke-width="3.5"/>
      <path d="M150-14c40-2 70 6 80 14-10 8-40 16-80 14z" fill="#122133"/>
      <path d="M-60 8l-90 110h44l92-92z" fill="#122133" stroke="#4A7599" stroke-width="3"/>
      <path d="M-204-10l-36-80h26l50 76z" fill="#122133" stroke="#4A7599" stroke-width="3"/>
      <g fill="#7AA4C4" opacity="0.75"><circle cx="60" cy="-18" r="7"/><circle cx="20" cy="-18" r="7"/><circle cx="-20" cy="-18" r="7"/><circle cx="-60" cy="-18" r="7"/><circle cx="-100" cy="-18" r="7"/></g>
    </g>
  </g>
    <g transform="translate(150 540) scale(1.1)">
      <path d="M-26-64a26 26 0 0 1 52 0z" fill="#F75000"/>
      <rect x="-32" y="-66" width="64" height="8" rx="4" fill="#C43D00"/>
      <circle cx="0" cy="-46" r="18" fill="#E8C9A8"/>
      <path d="M0-22c-34 0-56 24-56 58v76h112v-76c0-34-22-58-56-58z" fill="#C0C7D1"/>
      <rect x="-56" y="22" width="112" height="15" fill="#F5A623"/>
      <rect x="-56" y="40" width="112" height="6" fill="#E8F2F9" opacity="0.85"/>
    </g>

  <rect x="0" y="688" width="640" height="32" fill="#0A1420"/>
  <rect x="0" y="686" width="640" height="2" fill="#F75000" opacity="0.5"/>
</svg>
